<svg version="1.2" xmlns="http://www.w3.org/2000/svg" viewBox="0 0 370 80" width="370" height="80">
	<style>
		.s0 { fill: #f6f5f3 } 
	</style>
	<path id="INCREDIBOX" class="s0" aria-label="INCREDIBOX"  d="m26.3 54.9q0.2 0.8-1 1.8-1.2 1-2 1.1-2.1 0-6.5 0.2-2.3 0.3-7.4 1-4.6 0.7-4.7 0.7-1 0-1.4-0.3-0.2-1 2-2.4 0-1.1 1.5-2.2 1.3-1 2.3-0.8v-18.8q0-0.1 0.1-2.3 0.2-2.7 0.2-4.1-1.2 0.3-4.2 1-2.6 0.7-2.8 0.7-0.8 0-0.8-0.4 0-0.3 0.2-0.6-0.3-0.1-0.9-0.3 0-1 1.5-2 1-0.8 2.2-1.2 1.6-0.8 4.7-2.1 0-1.3 1.5-2.4 1.5-1.2 2.5-1 0.3 0.3 0.3 1.1 0 0.9 0 1 0 0.2 0.1 0.2 0.5 0 1.9-0.9 1.3-1 2.1-1 0.6 0 0.7 0.2 0 0.1 0 1 0.7 0 1.9-0.1 1.3 0 1.4 0 1.3 0 1.9 0.3 0 0.6-0.6 1.4 0.1 0 1.5 0 0.9 0 1.3 0.4 0.2 0.9-1.2 1.9-1.3 1-2.1 1-0.1 0-0.4-0.1-0.3-0.1-0.4-0.1-1.1 0-3.3 0.2-0.3 8.6-0.3 13.5 0 0.1 0 1.1 0 1.2 0 1.7 0.1 2.9 1 9 0.2 0.1 0.9 0.1 0.1 0 1-0.1 1-0.1 1.2-0.1 1.1 0 1.5 0.3 0 1.3-1.3 2.1 0.6 0.1 1.9 0.1 1.4 0 2 0.2zm-11.5-2.1q-0.7-4.3-0.8-6.5-0.4 4.7-0.4 4.3v2.5q0.5-0.1 1.2-0.3zm49.1-28q0 0.8-1.3 1.8-1.2 0.9-1.2 1-0.8 3.7-1.2 7.6-0.4 3-0.7 6.2 0 0.2 0 2.9 0 3.3 0.2 4.5 0.3 1.2 0.3 3.1 0 1.5-0.1 1.7-0.2 1.3-2.7 2.4 0.2 1.1-1.5 2.4-1.4 1-2.4 1-0.9 0-2.2-1.9-0.7-1-1.4-2.1-0.8-1.3-3.7-6.5-2.3-4-6.7-12-0.2 0.6-0.2 1.3v13.3q0 1.3 0.5 3.5 0.3 0 0.9 0.3 0.1 1.4-1.5 2.8-1.5 1.4-2.9 1.2-0.3-0.3-0.3-0.6-0.7-3.2-0.7-4.7v-14q0-3.1 0.5-9.3 0.3-2.8 0.7-5 0.2-0.6 1.8-2 2.2-1.9 3.1-1.9 0.9 0 1.6 1.5 2.7 6.6 5.4 13.2 3.4 8.4 7.1 13.9 0.1 0 0.1-0.4-0.3-2.3-0.8-6.7-0.3-3.5-0.7-10.4-0.3-5.7-0.3-6.4 0-1.6 0.3-2.1 0.5-0.8 2.6-1.7 0 0 0.9 0 0 0 0.1 0.2 0.1 2.6 0.3 5 1-2.7 1.9-3.9 1.5-2.3 3.5-2.2 0.2 0.3 0.5 2.3 0 0.1 0.1 0.3 0.1 0.3 0.1 0.4zm-23.6 4.4q-0.4-0.5-0.5-1.2 0 0.3-0.1 0.8-0.1 0.5-0.1 0.8 0.3-0.2 0.7-0.4zm15.7 26.5q-0.1-0.2-0.2-0.6-0.1-0.4-0.1-0.6-0.2 0.1-0.7 0.5 0.6 0.6 1 0.7zm48.2-6.8q0 1.2-3.6 3.2 0.4 0 1.1 0.3 0 0.4 0 0.6-1.1 2.2-4.3 3.1-2.5 0.6-4.9 1.1-0.4 0.1-1.2 0.2-6.8 1.5-10.1 1.5-10.5 0-10.5-9.2 0-3.3 2.9-9.7 2.7-5.8 8.5-10.8 6-5.3 11.3-6.3 0.4-0.2 1.1-0.4 3.3-0.7 4.3-0.7 1.7 0 4.2 1.3 0.1 0.9-1.3 2-1.4 1-2.4 1-0.1 0-0.6-0.2-0.5-0.2-0.7-0.2-0.2 0-0.6 0.4-0.4 0.3-0.5 0.3-6.9 3.7-10.7 7.3-3 2.8-4 5.6-1.1 3.3-1.1 4.9 0 0.2 0.1 1.1 0.3 1 0.3 1.4 0.1 0.9 1.3 2.4 1.3 1.5 2.4 1.8 2.4 0.8 4.8 0.8 2.5 0 6.3-1 3.6-0.9 6.3-2.2 0.4-0.1 0.9-0.1 0.7 0 0.7 0.5zm-12-22.9q-0.7 0.2-1.2 0.3-2 0.3-4.9 2.4-1.3 0.9-3.2 2.5-3.6 3.8-5.7 8.5 3.5-6.4 15-13.7zm47.9 24.9q0 1.2 0 1.5-0.2 1.5-1.1 2.9-0.9 1.3-0.9 1.2 0 0.2 0.3 0.8 0.3 0.7 0.3 0.8 0 0.6-1 1.5-0.9 0.9-1.7 1.2-0.5 0.1-1.3 0.1-1-2.1-6.7-14-0.2-0.4-1.3-1.9-0.8-1.2-0.8-1.8 0-0.3 0.1-0.5 0.1-0.1 0.2-0.2 0-0.1-0.2-0.1-0.1 0-1 0.5-0.8 0.6-1.3 1.1-0.5 0.5-1.2 1.4-0.4 0.8-1.5 1.4-1.5 0.9-1.5 0.9 0 0.2 0.1 0.8 0.1 0.6 0.1 0.8v7.6q0 0.5-1.2 1.4-1.1 0.9-1.5 1-0.6 0.1-0.8 0.1-0.5 0-0.8-0.3v-7.2q-0.3-3.2-0.8-9.6 0 0-0.1 0.2 0 0.7-0.2 2.5-0.1 1.7-0.1 1.8 0 0.1 0.3 4.9 0.3 4.7 0.3 4.8 0 0.9-1.2 1.8-0.9 0.9-1.9 1.1-0.1 0-0.9 0-0.4-0.3-0.4-0.6-0.8-7.6-1-15.8 0-2.7-0.2-10.5 0-0.7-0.2-1.9-0.1-1.4-0.1-1.4 0-1 1.5-2 1.3-0.8 2.1-0.8 0.3 0 0.5 0.1 0.2 0.3 0.5 1.4 0.9-0.7 1.6-0.9 0.4-0.1 1.2-0.4 1.2-1 3.2-2.4 1.4-0.9 3.3-1.7 1-0.4 2-0.6 0.3-0.1 2.8-0.1 2.5 0 3.2 0.2 1.6 0.6 2 2.8 0 0.2 0.5 0.8 0.8 1.1 0.8 2.7 0 3.2-1.7 5.8-0.9 1.7-3.9 4.7 1.3-0.1 3.9 0 4 0.6 6.1 5 1.6 3.4 1.6 7.1zm-11.7-23.4q0-0.4-1.7-1.3-1.5-0.8-1.9-0.8-0.2 0-0.9 0.2-0.6 0.3-0.8 0.4 2.8 0.1 5 2.5 0.3-0.6 0.3-1zm7.2 23.5v-0.4q-1.2-5.1-3.7-7.2 1.2 2.6 3.7 7.6zm-11-17.1q0-2.3-1.4-3.3-1.8-1.3-3.5-1.3-0.2 0-0.7 0.1-0.6 0-0.9 0v0.9q0 0.2 0.2 1.6 0.2 1.5 0.2 2 0.3 3 0.6 9.1 1.9-2.7 5.5-8.1 0-0.1 0-1zm-4.6 10.7h-0.8q0.2 0.3 0.2 0.7 0.1-0.3 0.6-0.7zm9.7-12.5q-0.4 0.4-0.9 1.7-0.3 0.8-0.5 1.6 0.6-0.5 1.3-1.4 0.1-0.4 0.1-1.9zm49.7 14q0 0.9-1.1 1.6-1 0.7-2 0.9-1.7 0.2-3.2 0.9-1.3 0.4-2.6 0.9 0.6 0.2 2.4 0.3 1.5 0 1.9 0.5 0 0.6-0.5 1.2-0.9 1-2.6 1.6-1.4 0.3-2.7 0.7-3.2 1.1-9.9 3.3-3.1 0.9-3.3 0.9-0.8 0-0.8-0.5 0-0.4 0.5-0.9-0.3 0-0.9 0.1-0.5 0-0.7 0-0.4 0-0.4-0.2-0.2-2.9-0.5-4.4-0.3-1.2-0.7-2.3 0 0.3 0.2 2.8 0.1 1.9 0 3.2-0.1 0.8-1.6 1.7-1.4 0.9-2.2 0.7-1-2.2-1-6.1 0-1.4-0.2-4.2-0.1-3-0.2-4.4-0.1-10.2 0.1-12.7-0.7 0.1-1.2-0.2 0-0.4 0.6-1.2 0.6-0.7 0.6-0.8 0-1.1 0.3-3.5 0.1-0.8 1.4-1.7 1.3-0.8 2-0.8 0.7 0 0.7 0.6 0 0.1 0 0.2 0 0.2 0 0.2 0 0.2 0.1 0.2 0.2 0 0.6-0.1 0.5-0.2 0.7-0.2 0.8 0 0.9 0.6 0.2 0.6 0.4 0.6 0 0 1.9-0.7 2-0.7 3.3-1 2.1-0.5 6.3-1.3 4.6-0.8 6.6-0.8 1.3 0 1.6 0.4 0 0.6-0.7 1.5-0.6 0.8-1.3 1.2 0.7 0 2.1-0.1 1.4-0.1 1.4-0.1 1.6 0 2.3 0.4 0.2 1.2-1.4 2.4-1.3 1.1-2.4 1.1-0.7 0-0.7-0.3-0.1-0.4-0.8-0.4-2.2 0-9 1.6-0.8 0.2-5.6 2 0 3.7 0.5 5.9 3.9-0.8 7.9-1.6 6.1-1.2 9.6-1.2 0.7 0 1.1 0.3-0.1 1.5-1.6 3-1.5 1.5-2.9 1.5-0.2 0.1-0.6 0.2-0.4 0-1.1 0.1-4.4 1.1-5.3 1.3-4 1.2-6.9 2.8 0.4 2.9 0.6 4 0.4 2.5 1 4.4 3.2-1.5 5.5-2.3 2.5-1 4.9-1.7 1.7-0.7 3.4-1.4 2.8-1 4.1-1 0.7 0 1.1 0.3zm-15-20.4q-2.7 0.4-4.3 0.8-1.9 0.5-2.4 0.5l0.2 1.5q2.3-1 6.5-2.8zm4.3 25.3q-1 0.2-4.5 1.5-2.3 1-3.4 1.9 1.2-0.4 4.2-1.4 1.7-0.6 3.7-2zm49.6-13q0 2.2-2 5.4-1.7 2.7-4.1 5.2-0.3 0.3-2 3.1-0.7 1.3-1.9 2.3-1.2 1-2.2 1-0.8 0-0.8-0.7 0-0.3 0.1-0.8v-0.1q-1.2 0.6-3.5 2-0.1 0.4-0.6 1.2-1.8 1.7-3 1.7-0.6 0-0.5 0-0.2-0.1-0.5-0.8-0.8 1.2-1.9 1.9-1.2 0.8-2.1 0.7-0.4-0.9-0.6-2.7-0.2-2.5-0.4-3.3-0.3 1.4-1.5 2.3-1.2 0.8-2.4 0.8-0.4-0.5-0.5-0.6-0.2-2.6-0.5-5.3-1-8.2-1.3-13.1-0.2-4.9-0.2-10.4 0-3.1 0-3.4 0.1-0.8 1.4-1.7 1.3-0.9 2-0.9 0.7 0 0.7 0.6 0.1 1 0.1 1.1 1.8-1.1 2.6-1.1 1 0 1.2 1 0.2 0.8 0.3 1.6 4.2-1.8 7.9-1.8 4.7 0 9.9 3.5 0.9 0.4 2.9 1.5 1.2 1 1.8 2.5 0.2 0.5 0.6 2.4 0.2 0.6 0.6 1.7 0.4 1.7 0.4 3.2zm-5.4-1.8q0-1.2-1.6-3.3-1.2-1.5-2.4-2.6 0.9 2.1 1.9 4.1 1.2 2.5 1.6 4.1 0.5-1.5 0.5-2.3zm-4.2 7.7q0-2.2-2-6.8-1.9-4.1-3.4-6-1.6-1.9-3.9-1.9h-0.5q1.5 6.3 2.7 18.9 0 0.8 0 2.2-0.1 1.8-0.1 1.9 3.3-2.9 5.6-6 0.5-0.6 1-1.2 0.6-0.7 0.6-1.1zm-12 2h0.2v-0.6h-0.2zm0.9 4.6q-0.3-1.4-0.7-4.2 0 3 0.3 8.7 0-0.6 0.2-2.3 0.3-1.5 0.2-2.2zm-5.7-0.1q-0.1 0.6-0.1 1 0.1 0.7 0.3 0.8 0.2-0.5 0.1-0.8 0-0.4-0.3-1zm21.8-8.4q-0.1 0.1-0.6 0.7-0.2 0.6-0.6 1.5 0.4-0.4 0.9-1.2 0.2-0.3 0.3-1zm-5.1 6.1q-0.2 0.2-0.6 0.7-0.2 0.3-0.4 0.8 0.3-0.2 0.7-0.7 0.1-0.2 0.3-0.8zm38.7 6.8q0.2 0.7-1 1.8-1.2 1-2 1-2.1 0-6.5 0.3-2.3 0.3-7.4 1-4.6 0.7-4.7 0.7-1 0-1.4-0.3-0.2-1 2-2.5 0-1 1.5-2.1 1.3-1.1 2.3-0.9v-18.7q0-0.1 0.1-2.3 0.2-2.7 0.2-4.1-1.2 0.2-4.2 1-2.6 0.7-2.8 0.7-0.8 0-0.8-0.4 0-0.3 0.2-0.7-0.3 0-0.9-0.3 0-1 1.5-2 1-0.7 2.2-1.1 1.6-0.8 4.7-2.1 0-1.3 1.5-2.5 1.5-1.1 2.5-0.9 0.3 0.3 0.3 1 0 1 0 1.1 0 0.2 0.1 0.2 0.5 0 1.9-1 1.3-1 2.1-1 0.6 0 0.7 0.3 0 0.1 0 1 0.7 0 1.9-0.1 1.3-0.1 1.4-0.1 1.3 0 1.9 0.4 0 0.6-0.6 1.3 0.1 0 1.5 0 0.9 0 1.3 0.5 0.2 0.9-1.2 1.9-1.3 1-2.1 1-0.1 0-0.4-0.1-0.3-0.2-0.4-0.2-1.1 0-3.3 0.3-0.3 8.6-0.3 13.4 0 0.2 0 1.2 0 1.2 0 1.7 0.1 2.9 1 9 0.2 0 0.9 0 0.1 0 1 0 1-0.1 1.2-0.1 1.1 0 1.5 0.3 0 1.3-1.3 2.1 0.6 0.1 1.9 0.1 1.4-0.1 2 0.2zm-11.5-2.1q-0.7-4.3-0.8-6.6-0.4 4.8-0.4 4.4v2.5q0.5-0.1 1.2-0.3zm51-8.7q0 4.3-6.6 8.5-0.8 0.5-2.8 1.4-1.5 0.6-4.5 1.8 0 0-1.5 0.6-1 0.4-1.4 0.4-0.6 0-0.7-0.4 0-0.4-0.1-0.4-0.1 0-0.8 0.2-0.7 0.2-1 0.2-0.1 1-1.4 1.9-1.2 0.9-2.2 0.9-0.2 0-0.3 0-0.4-0.3-0.6-1-0.7-3-1.1-7.3-0.3-3.6-0.5-7.2 0 0.4 0 2.9 0 2.6 0.2 4.3 0.2 1.6 0.2 2.1 0 0.7 0 1-0.2 0.8-1.3 1.6-1.2 0.8-1.9 0.8-0.8 0-1.1-1 0.1-0.4 0.2-1.1-0.3-1.4-0.8-4.1-0.3-2.3-0.8-6.8-0.5-5.4-0.5-11.7 0-3.4 0.3-4.2 0.7-2.2 3.6-2.4 0.2 0.2 0.2 0.5 0 0-0.2 0.9-0.1 0.6 0.1 1 0.2-1.9 1.4-3.6 1.4-2.2 3.3-2 0.3 0.5 0.4 1.8 0.1 1.4 0.3 1.9 2.8-1.4 5.9-1.9 2.1-0.3 5.8-0.3 1.4 0 2.3 0.2 0.4 0.4 1.2 1 1.1 0.9 1.4 1.2 0.6 0.5 0.6 1.3 0 1.7-4.8 5.4-1 0.7-9.6 7.2 0 0.1 0.1 0.1 2.8-1.3 4.2-1.6 1.9-0.6 4.3-0.6 3.7 0 6.3 1.1 4.2 1.6 4.2 5.4zm-10.4-16.4q0-0.1-0.9-0.5 0.3 2.9-6.1 8.1-0.1 0.2-0.2 0.4 2.4-1.3 6.1-5.7 0.2-0.2 0.6-1 0.5-1 0.5-1.3zm-4.8 1.7q-1.2-1-2-1-0.1 0-4.7 1.1l0.2 6.6q2.3-1.7 3.5-2.7 2.3-2 3-3.4 0-0.2 0-0.6zm0.8 11.3h0.3v-0.1h-0.3zm0 0h-0.4q-1.2 0-5.1 1.7-0.3 0.1-0.8 0.6 2.5-0.8 6.3-2.3zm7.2 6.7q0-0.5-1-1.2-0.7-0.5-2.1-1.2-3.1-0.9-4.4-0.9-0.5 0-6.6 1.6v1.6q0 0.1 1.1 7.6 1.1-1.3 2-2 1.4-0.9 4.4-2.5 3.3-1.7 4.1-1.7 0.7 0 0.7 0.4 0 0.4-0.4 1.1 2.2-1.8 2.2-2.8zm-12.9-9.9q-0.8 0.7-1.5 1.4 0.5 0.3 1-0.1 0.6-0.5 0.5-1.3zm56-2q0 3.4-0.5 5.9-0.1 0.5-1.2 4.6-0.9 3.3-5.2 7.4-4.2 4.1-7.7 4.9-0.3 0.3-0.9 0.7-1.6 0.8-2.6 0.8-0.8 0-1.4-0.3-0.8-0.4-1-0.5-0.9 0-2.6-0.3-4.5-1.7-6.7-5.5-1.8-3.1-1.8-7.1 0-4.9 2.6-9.8 3.6-6.6 8.6-10.1 0.3-0.3 0.6-0.9 1.4-2 4.1-3.2 0.9-0.4 1.5-0.4 0.7 0 0.7 0.5 0 0.1-0.6 1 1.1 0.1 2.8 0 2.2-0.1 2.7-0.1 2.4 0 4 0.7 0.5 0.2 2 2 2.6 3 2.6 9.7zm-3.8 2q0-3.6-1.1-6.7-1.5-4.1-4.5-4.5 1.5 4.7 1.8 5.8 1 3.5 1.6 7.2 0.3 1 0.9 2.7 0.2 0.9 0.4 2.8 0.9-2.8 0.9-7.3zm-1.2 8.5q-0.5 0.4-1.2 1.3 0 0-1.1 3.6 1.8-2.7 2.3-4.9zm-4.6-1.3q0-2.6-0.2-3-2.9-7.5-6.7-14.3-0.9 0.7-1.8 1.4-1.2 0.9-1.4 1.8 0.6 0.1 0.6 0.4 0 0-0.1 0.4-0.5 0.5-1.2 1.4-0.4 0.7-0.8 3.4-0.7 4.1-0.7 6.3 0 2.3 0.2 3.3 0.5 2 2.6 3.9 0.4 0.5 2.7 1.8 0 0.8-1 1.6-0.7 0.4-1.3 0.9 0.2 0.6 0.8 1.3 0.7 0.9 1.3 0.9 0.2 0 1-0.1 0.9-0.1 1.1-0.1 1.3-0.2 1.5-0.5 1.1-1.4 2.5-4.5 0.9-2.2 0.9-6.3zm-14.4 8.6q-0.4-1.1-1.1-3.1-0.2-1-0.5-2.7-0.9-3.1-0.8-5.8-0.4 0.2-1.2 0.2-0.2 1.8-0.2 2.2 0 2.4 1 4.8 1 2.9 2.8 4.4zm69.8 3.5q0 1.2-1.4 2.3-1.4 1.1-2.5 1.1-0.5 0-0.8-0.3 0-0.1 0.1-0.4 0.2-0.4 0.2-0.6 0-1.1-2-3.9-1.6 2.2-3.6 2.2-0.6 0-0.7 0-1-0.6-3.2-2.9-2.3-2.2-2.3-2.8 0-0.5 0.5-1l-5.5-6.2q-1.3 2.6-3.8 7.9 0.1 0.3 0 0.8-2.7 6.4-5.4 6.4-0.9 0-0.9-1 0-0.8 0.6-1.8 0.7-1.4 0.7-1.6v-0.2q-1.7 1.7-2.9 1.7-0.8 0-0.8-0.5 0-0.2 4.5-8.1 4.6-7.8 4.6-7.9 0-0.1-4.9-4.7-5.4-5.1-7.7-7.5-2.2-2.5-2.2-3.6 0-1 1.5-1.9 1.3-0.9 2.1-0.9 0.4 0 0.9 0.3 1.3-1.9 3.2-1.9 1.1 0 3.3 2.9 1.1 1.4 3.1 4 1.8 2 5.2 6.1 0-0.1 3.9-5.3 2.1-3 2.3-3.1 1.5-1.8 2.9-1.8 0.8 0 0.8 0.6 0 0.7-0.8 2.1-0.6 0.6-1.9 2.1-1.3 1.9-3 5.2-1.5 3.1-1.5 3.4 0 0.1 5 5.2 6.4 6.7 8.2 8.5 1.1 1.2 2.6 3.4 1.6 2.7 1.6 3.7zm-30.3-29.1q-0.5-0.8-2.9-3.6-0.5-0.3-0.6 0.2 0.3 0.5 1.6 1.7 1 0.8 1.9 1.7zm2.7 23.9l0.3-1-0.5 0.5-0.3 0.6q0.2 0.2 0.5-0.1z"/>
</svg>