<svg version="1.2" xmlns="http://www.w3.org/2000/svg" viewBox="0 0 370 80" width="370" height="80">
	<style>
		.s0 { fill: #f2f2f2 } 
	</style>
	<path fill-rule="evenodd" class="s0" d="m214.8 39q0.15 0.97 0.23 1.94 0.07 0.98 0.07 1.96 0 0.98-0.07 1.96-0.08 0.97-0.23 1.94-0.09 0.85-0.23 1.7-0.13 0.85-0.31 1.68-0.17 0.84-0.39 1.67-0.21 0.83-0.47 1.65-0.28 0.82-0.59 1.64-0.31 0.81-0.64 1.61-0.34 0.8-0.71 1.59-0.36 0.79-0.76 1.56-0.1 0.22-0.2 0.44-0.11 0.21-0.22 0.43-0.11 0.21-0.23 0.42-0.12 0.21-0.25 0.41-0.1 0.23-0.21 0.45-0.12 0.22-0.24 0.43-0.13 0.21-0.26 0.42-0.14 0.2-0.29 0.4-0.5 0.9-1 1.7c-0.33 0.53-0.77 1.07-1.1 1.6q-0.12 0.17-0.25 0.34-0.13 0.17-0.27 0.33-0.14 0.17-0.28 0.32-0.15 0.16-0.3 0.31-0.5 0.6-1.1 1.2-0.6 0.6-1.2 1.1-0.15 0.15-0.31 0.3-0.15 0.14-0.32 0.28-0.16 0.14-0.33 0.27-0.17 0.13-0.34 0.25-0.41 0.3-0.9 0.6-0.49 0.3-0.9 0.6-0.49 0.3-0.9 0.6l-1 0.6q-0.09 0.04-0.18 0.09-0.09 0.05-0.18 0.1-0.08 0.05-0.17 0.1-0.09 0.05-0.17 0.11-0.1 0.03-0.21 0.06-0.1 0.03-0.2 0.07-0.1 0.04-0.2 0.08-0.09 0.04-0.19 0.09-0.09 0.03-0.18 0.07-0.09 0.03-0.17 0.07-0.09 0.04-0.18 0.08-0.08 0.04-0.17 0.08l-0.8 0.2q-0.12 0.05-0.25 0.09-0.12 0.04-0.24 0.08-0.13 0.04-0.26 0.07-0.12 0.03-0.25 0.06l-1.1 0.2q-0.12 0.03-0.25 0.04-0.12 0.02-0.25 0.04-0.12 0.01-0.25 0.01-0.12 0.01-0.25 0.01-0.14 0.02-0.27 0.04-0.14 0.02-0.28 0.03-0.14 0.02-0.27 0.02-0.14 0.01-0.28 0.01h-1.7q-0.11 0-0.23 0-0.11-0.01-0.22-0.02-0.12-0.01-0.23-0.03-0.11-0.02-0.22-0.05-0.11 0-0.23-0.01-0.11 0-0.22-0.02-0.12-0.01-0.23-0.03-0.11-0.02-0.22-0.04-0.24-0.11-0.45-0.26-0.22-0.14-0.41-0.32-0.19-0.18-0.35-0.39-0.16-0.2-0.29-0.43c-0.3-0.7-0.3-3.4 0.1-8.3 0.3-4 1-11.1 1.4-15.7 0.4-4.6 1-10.1 1.3-12q0.1-1 0.2-2 0.1-1.01 0.2-2.1v-2q0.03-0.26 0.05-0.52 0.01-0.27 0.03-0.53 0.01-0.26 0.02-0.52 0-0.27 0-0.53l-2.1-0.2c-1.2-0.1-5.8-0.4-10.4-0.5-4.6-0.1-8.6-0.4-9.2-0.6-1-0.1-1.3 0.1-1.7 1.7l-0.2 1q0 0.13-0.01 0.25 0 0.13-0.01 0.25-0.02 0.13-0.04 0.25-0.01 0.13-0.04 0.25-0.03 0.12-0.04 0.25-0.02 0.12-0.04 0.25-0.01 0.12-0.01 0.25-0.01 0.12-0.01 0.25-0.03 0.12-0.04 0.25-0.02 0.12-0.04 0.25-0.01 0.12-0.01 0.25-0.01 0.12-0.01 0.25 0 0.18-0.01 0.35 0 0.18-0.01 0.35-0.02 0.18-0.04 0.35-0.01 0.18-0.04 0.35 0 0.18-0.01 0.35 0 0.18-0.01 0.35-0.02 0.18-0.04 0.35-0.01 0.18-0.04 0.35-0.03 0.16-0.05 0.32-0.02 0.17-0.03 0.33-0.01 0.16-0.02 0.32 0 0.17 0 0.33-0.03 0.18-0.06 0.35-0.03 0.18-0.07 0.35-0.04 0.18-0.08 0.35-0.04 0.18-0.09 0.35-0.09 0.47-0.17 0.94-0.07 0.47-0.12 0.95-0.05 0.48-0.08 0.95-0.02 0.48-0.03 0.96c0.2 0.1 2.6 0.5 5.5 0.9q0.88 0.11 1.75 0.25 0.87 0.15 1.74 0.34 0.86 0.19 1.71 0.41 0.86 0.23 1.7 0.5 0.26 0.14 0.51 0.3 0.25 0.16 0.48 0.34 0.24 0.17 0.47 0.36 0.23 0.2 0.44 0.4 0.09 0.26 0.15 0.54 0.06 0.27 0.08 0.55 0.03 0.28 0.02 0.55-0.01 0.28-0.05 0.56 0 0.08-0.01 0.15 0 0.08-0.01 0.15-0.02 0.08-0.04 0.15-0.01 0.08-0.04 0.15l-0.2 0.6q-0.03 0.08-0.06 0.16-0.03 0.07-0.07 0.15-0.04 0.07-0.08 0.15-0.04 0.07-0.09 0.14-0.03 0.08-0.06 0.16-0.03 0.07-0.07 0.15-0.04 0.07-0.08 0.15-0.04 0.07-0.09 0.14c-0.8 0.8-1.4 0.9-14.3 0.2l-0.9 7.1c-0.4 4-0.8 7.9-0.8 10.4h5.8q0.94-0.02 1.88-0.01 0.94 0.01 1.87 0.04 0.94 0.04 1.88 0.11 0.94 0.06 1.87 0.16 0.3 0.1 0.7 0.2l0.6 0.4 0.5 0.5q0.06 0.06 0.1 0.13 0.05 0.07 0.09 0.15 0.04 0.08 0.07 0.16 0.02 0.08 0.04 0.16 0.15 0.26 0.22 0.56 0.08 0.29 0.08 0.59 0 0.3-0.08 0.59-0.07 0.3-0.22 0.56-0.02 0.07-0.05 0.14-0.03 0.06-0.07 0.13-0.04 0.06-0.08 0.12-0.05 0.06-0.1 0.11-0.03 0.06-0.06 0.11-0.04 0.05-0.08 0.1-0.03 0.05-0.07 0.1-0.05 0.05-0.09 0.09l-0.4 0.4q-0.3 0.19-0.5 0.3-0.59 0.17-1.18 0.3-0.6 0.13-1.2 0.23-0.6 0.1-1.21 0.17-0.6 0.07-1.21 0.1c-2.2 0.1-6.3 0.3-9.2 0.5-4.2 0.2-5.7 0.1-6.9-0.5l-0.6-0.4q-0.07-0.04-0.14-0.09-0.06-0.04-0.12-0.09-0.07-0.05-0.13-0.11-0.05-0.05-0.11-0.11-0.06-0.06-0.12-0.11-0.06-0.05-0.12-0.1-0.06-0.05-0.13-0.1-0.06-0.05-0.13-0.09l-0.4-0.6c-0.3-0.7-0.2-2.8 0.3-7.1 0.4-3.3 1.3-10.4 2-15.7 0.7-5.3 1.8-13.8 2.5-18.9 0.7-5.1 1.5-9.7 1.9-10.3l0.4-0.4q0.04-0.07 0.1-0.13 0.05-0.06 0.12-0.11 0.06-0.05 0.13-0.09 0.07-0.04 0.15-0.07 0.05-0.05 0.11-0.1 0.06-0.04 0.12-0.08 0.07-0.04 0.13-0.07 0.07-0.03 0.14-0.05 0.05-0.05 0.11-0.09 0.06-0.04 0.12-0.06 0.06-0.03 0.13-0.04 0.07-0.01 0.14-0.01c0.6-0.1 1.9-0.3 2.9-0.4 1-0.1 7.5-0.1 14.6 0 7.1 0.1 14.7 0.2 16.9 0.4q0.79 0.02 1.58 0.1 0.79 0.09 1.57 0.24 0.78 0.15 1.54 0.37 0.77 0.21 1.51 0.49 0.6 0.3 1.1 0.6 0.13 0.05 0.26 0.11 0.13 0.06 0.25 0.12 0.13 0.06 0.25 0.13 0.12 0.07 0.24 0.14 0.6 0.3 1.1 0.6 0.13 0.08 0.26 0.16 0.13 0.08 0.25 0.17 0.13 0.09 0.25 0.18 0.12 0.09 0.24 0.19 0.53 0.45 1.04 0.93 0.52 0.48 1 0.98 0.49 0.5 0.96 1.02 0.46 0.53 0.9 1.07 0.41 0.57 0.8 1.15 0.39 0.59 0.75 1.19 0.36 0.6 0.7 1.22 0.34 0.61 0.65 1.24 0.24 0.66 0.46 1.33 0.22 0.66 0.4 1.34 0.19 0.67 0.35 1.36 0.16 0.68 0.29 1.37zm-7.6 8.2q0.03-0.22 0.04-0.45 0.01-0.22 0.01-0.45 0-0.23-0.01-0.45-0.01-0.23-0.04-0.45v-1.9q-0.1-0.9-0.3-1.9c-0.13-0.67-0.17-1.2-0.3-1.8q-0.19-0.68-0.43-1.35-0.24-0.67-0.51-1.32-0.28-0.65-0.59-1.28-0.32-0.64-0.67-1.25-0.08-0.11-0.16-0.21-0.09-0.1-0.18-0.2-0.08-0.1-0.17-0.2-0.1-0.1-0.19-0.19l-0.6-0.8q-0.09-0.09-0.19-0.19-0.1-0.09-0.2-0.17-0.1-0.09-0.2-0.18-0.1-0.08-0.21-0.16-0.08-0.11-0.16-0.21-0.09-0.1-0.18-0.2-0.08-0.1-0.17-0.2-0.1-0.1-0.19-0.19-0.09-0.04-0.18-0.09-0.09-0.05-0.18-0.1-0.08-0.05-0.17-0.1-0.09-0.05-0.17-0.11-0.08-0.06-0.17-0.11-0.09-0.05-0.17-0.1-0.09-0.05-0.18-0.1-0.09-0.05-0.18-0.09-0.08-0.05-0.17-0.1-0.08-0.04-0.17-0.08-0.09-0.04-0.18-0.07-0.09-0.03-0.18-0.05-0.08-0.05-0.17-0.1-0.08-0.04-0.17-0.08-0.09-0.04-0.18-0.07-0.09-0.03-0.18-0.05l-1.2-0.3-0.7 6.9c-0.3 3.7-0.9 9.8-1.3 13.5-0.4 3.7-0.8 8.8-1 11.3-0.3 4.3-0.2 4.6 0.6 4.3q0.09-0.04 0.17-0.08 0.09-0.04 0.18-0.08 0.08-0.04 0.17-0.07 0.09-0.04 0.18-0.07 0.08-0.06 0.17-0.11 0.09-0.05 0.17-0.1 0.09-0.05 0.18-0.1 0.09-0.05 0.18-0.09l0.6-0.4q0.07-0.07 0.14-0.14 0.07-0.06 0.15-0.13 0.07-0.06 0.15-0.12 0.08-0.06 0.16-0.11l1-0.8q0.41-0.4 0.9-0.8c0.33-0.27 0.57-0.53 0.9-0.8 0.33-0.27 0.53-0.57 0.8-0.9q0.55-0.66 1.07-1.34 0.51-0.69 0.99-1.41 0.47-0.71 0.91-1.45 0.44-0.74 0.83-1.5 0.49-0.92 0.87-1.89 0.37-0.98 0.62-1.99 0.26-1.01 0.38-2.04 0.13-1.04 0.13-2.08zm24.2-14.1l0.4 0.4q0.05 0.07 0.09 0.14 0.04 0.08 0.08 0.15 0.04 0.08 0.07 0.15 0.03 0.08 0.06 0.16 0.05 0.07 0.08 0.14 0.04 0.07 0.06 0.15 0.03 0.07 0.04 0.15 0.02 0.08 0.02 0.16c0.2 0.8-0.3 5.9-1.2 11.5-0.9 5.6-1.6 11.2-1.7 12.4-0.1 1.2-0.7 5.2-1 8.7q-0.11 0.97-0.25 1.94-0.15 0.97-0.32 1.93-0.18 0.97-0.38 1.92-0.21 0.96-0.45 1.91l-0.4 0.6q-0.06 0.06-0.12 0.11-0.06 0.05-0.12 0.1-0.06 0.05-0.13 0.1-0.06 0.05-0.13 0.09-0.07 0.05-0.14 0.09-0.08 0.04-0.15 0.08-0.08 0.04-0.15 0.07-0.08 0.03-0.16 0.06-0.07 0.03-0.15 0.04-0.07 0.02-0.15 0.04-0.07 0.01-0.15 0.01-0.07 0.01-0.15 0.01-0.46 0.01-0.91-0.06-0.45-0.06-0.88-0.2-0.44-0.14-0.84-0.35-0.41-0.22-0.77-0.49c-1.1-0.8-1.9-1.7-1.9-2.4v-3.3c0.1-1.3 1-9.1 2.1-17.4 1.1-8.3 2.2-15.9 2.5-17q0.06-0.34 0.19-0.66 0.12-0.32 0.3-0.62 0.18-0.29 0.41-0.55 0.23-0.26 0.5-0.47 0.28-0.15 0.57-0.26 0.29-0.11 0.59-0.19 0.31-0.08 0.62-0.11 0.31-0.04 0.62-0.04-0.01 0.05-0.01 0.04c1.47 0.16 1.53 0.16 1.59 0.16q0.09 0.01 0.17 0.02 0.09 0.01 0.18 0.03 0.09 0.02 0.17 0.05 0.4 0.1 0.7 0.2 0.08 0.03 0.16 0.06 0.07 0.03 0.15 0.07 0.07 0.04 0.15 0.08 0.07 0.04 0.14 0.09zm-188.7-9.7c-0.2 1.8-1.1 6.3-2 9.9-0.9 3.6-3 12.2-4.5 18.9-1.5 6.7-3.3 14.2-3.9 16.6l-0.4 1.6q-0.08 0.18-0.15 0.37-0.07 0.18-0.13 0.37-0.06 0.19-0.12 0.38-0.05 0.19-0.1 0.38-0.05 0.18-0.11 0.36-0.05 0.17-0.12 0.35-0.06 0.17-0.13 0.35-0.07 0.17-0.14 0.34-0.3 0.8-0.6 1.5-0.13 0.28-0.29 0.53-0.17 0.26-0.38 0.49-0.2 0.23-0.43 0.42-0.24 0.2-0.5 0.36l-0.4 0.2q-0.05 0.02-0.09 0.04-0.05 0.02-0.1 0.03-0.05 0.02-0.11 0.02-0.05 0.01-0.1 0.01-0.06 0.02-0.12 0.04-0.06 0.02-0.13 0.03-0.06 0.01-0.12 0.02-0.07 0.01-0.13 0.01h-0.4q-0.34-0.04-0.67-0.12-0.33-0.08-0.65-0.21-0.32-0.13-0.61-0.29-0.3-0.17-0.57-0.38c-1.3-0.8-1.5-1.3-1.5-2.9q0.03-0.71 0.09-1.41 0.06-0.7 0.15-1.4 0.09-0.7 0.2-1.4 0.12-0.7 0.26-1.39c0.4-2 1.2-5.4 1.7-7.6 0.5-2.2 1.5-6 2-8.4 0.5-2.4 1.1-5.3 1.3-6.3 0.2-1 0.8-3.9 1.5-6.7 0.7-2.8 1.8-7.4 2.4-10.4 0.8-3.4 1-5.7 0.8-6q-0.2-0.1-0.2-0.2-0.02-0.04-0.04-0.08-0.02-0.04-0.05-0.08-0.02-0.03-0.05-0.07-0.03-0.04-0.06-0.07-0.02-0.05-0.04-0.09-0.02-0.05-0.03-0.1-0.02-0.05-0.02-0.11-0.01-0.05-0.01-0.1v-0.3q0.01-0.26 0.07-0.51 0.05-0.25 0.14-0.49 0.09-0.24 0.21-0.47 0.12-0.23 0.28-0.43c0.7-0.9 1.3-1.1 4-1.1 2.7 0 3.5 0.2 4.3 1.1 1 1.1 1.1 1.5 0.8 4.4zm201.1-14.7q-0.07 0.1-0.15 0.19-0.09 0.1-0.17 0.19-0.09 0.08-0.19 0.17-0.09 0.08-0.19 0.15-0.08 0.08-0.16 0.16-0.09 0.08-0.17 0.16-0.09 0.07-0.18 0.14-0.1 0.07-0.19 0.14-0.41 0.3-0.9 0.6-0.1 0.05-0.19 0.09-0.1 0.04-0.2 0.08-0.1 0.04-0.2 0.07-0.11 0.03-0.21 0.06-0.11 0.05-0.22 0.09-0.11 0.05-0.22 0.09-0.11 0.03-0.23 0.07-0.11 0.03-0.23 0.05-0.11 0.05-0.22 0.09-0.11 0.05-0.22 0.09-0.11 0.03-0.23 0.07-0.11 0.03-0.23 0.05l-0.8 0.2q-0.26 0.04-0.51 0.1-0.26 0.06-0.51 0.13-0.25 0.08-0.5 0.17-0.24 0.09-0.48 0.2-0.23 0.75-0.44 1.5-0.2 0.76-0.38 1.52-0.17 0.77-0.32 1.54-0.14 0.77-0.26 1.54c-1 5-1.3 5.9-2.6 7.1-1.3 1.2-1.8 1.4-4.5 1.4-2.7 0-3.1-0.2-4.5-1.5-1.2-1.3-1.4-1.9-1.4-3.9q-0.03-0.4-0.01-0.8 0.02-0.4 0.09-0.79 0.08-0.39 0.21-0.77 0.13-0.38 0.31-0.74l0.9-0.9q0.07-0.04 0.13-0.09 0.07-0.05 0.13-0.1 0.06-0.05 0.12-0.1 0.06-0.05 0.12-0.11 0.07-0.02 0.14-0.05 0.06-0.03 0.13-0.07 0.06-0.04 0.12-0.08 0.06-0.05 0.11-0.1c0.8-0.5 2.6-0.9 7.1-1.1l0.8-4.2q0.14-0.78 0.31-1.57 0.17-0.78 0.35-1.55 0.19-0.78 0.4-1.55 0.21-0.77 0.44-1.53 0.09-0.35 0.2-0.7 0.12-0.35 0.26-0.69 0.13-0.34 0.29-0.67 0.17-0.32 0.35-0.64c0.4-0.4 1.9-0.6 10.5-0.3l0.2 2v0.9q0 0.13-0.01 0.26-0.02 0.12-0.04 0.25-0.03 0.13-0.07 0.25-0.03 0.12-0.08 0.24-0.02 0.12-0.05 0.23-0.04 0.12-0.07 0.23-0.04 0.11-0.09 0.22-0.04 0.11-0.09 0.22-0.05 0.12-0.1 0.24-0.06 0.11-0.12 0.23-0.06 0.11-0.13 0.22-0.07 0.11-0.15 0.21-0.07 0.09-0.14 0.18-0.07 0.09-0.15 0.18-0.07 0.09-0.15 0.17-0.08 0.09-0.16 0.17zm-162.8 11.3q0.15 0.27 0.27 0.56 0.12 0.3 0.19 0.6 0.08 0.3 0.11 0.62 0.04 0.31 0.03 0.62c0.1 0.9-0.9 5.9-2.1 10.9-1.2 5-3 12.3-3.9 16.2-0.9 3.9-1.9 8-2.2 9.4-0.3 1.4-0.9 3.7-1.3 5.2-0.4 1.5-0.8 4.2-1.2 6-0.4 1.8-1 3.5-1.4 3.8q-0.25 0.21-0.52 0.39-0.28 0.18-0.57 0.33-0.29 0.16-0.59 0.27-0.3 0.12-0.62 0.21-0.44 0.15-0.89 0.23-0.46 0.07-0.92 0.06-0.46-0.02-0.91-0.11-0.45-0.1-0.88-0.28-0.12-0.05-0.24-0.1-0.11-0.06-0.23-0.12-0.11-0.06-0.22-0.13-0.11-0.07-0.21-0.15-0.12-0.05-0.24-0.1-0.11-0.06-0.23-0.12-0.11-0.06-0.22-0.13-0.11-0.07-0.21-0.15l-0.7-0.7q-0.08-0.08-0.16-0.17-0.08-0.08-0.15-0.17-0.08-0.09-0.15-0.18-0.07-0.09-0.14-0.18c-1.1-1.6-1.2-3-2.2-14.4-0.6-6.8-1.2-13-1.5-13.6-0.3-0.9-0.5-1-0.7-0.4-0.2 0.4-0.8 3.6-1.6 7-0.8 3.4-1.9 8.8-2.6 11.9-0.7 3.1-1.7 7.3-2.2 9.1-0.9 2.7-1.4 3.6-2.5 4.1q-0.07 0.05-0.14 0.09-0.08 0.04-0.15 0.08-0.08 0.04-0.15 0.07-0.08 0.03-0.16 0.06-0.06 0.03-0.12 0.06-0.06 0.02-0.13 0.05-0.06 0.02-0.12 0.05-0.07 0.02-0.13 0.04-0.07 0.03-0.15 0.04-0.07 0.02-0.15 0.04-0.07 0.01-0.15 0.01-0.07 0.01-0.15 0.01-0.07 0.03-0.15 0.04-0.07 0.02-0.15 0.04-0.07 0.01-0.15 0.01-0.07 0.01-0.15 0.01h-0.4l-0.4-0.2q-0.04 0-0.08 0-0.04-0.01-0.08-0.02-0.04-0.01-0.07-0.03-0.04-0.02-0.07-0.05-0.06-0.03-0.11-0.06-0.05-0.04-0.1-0.08-0.05-0.03-0.1-0.07-0.05-0.05-0.09-0.09-0.15-0.23-0.27-0.49-0.11-0.25-0.19-0.52-0.07-0.26-0.11-0.54-0.03-0.27-0.03-0.55 0.14-1.16 0.3-2.32 0.17-1.15 0.37-2.3 0.2-1.15 0.43-2.3 0.24-1.14 0.5-2.28c0.8-4.2 1.7-8.8 2-10.2 0.3-1.4 0.6-3.7 0.9-5.2 0.3-1.5 1.1-5.9 1.9-9.9 0.8-4 2-9.1 2.6-11.4 0.13-0.47 0.27-1 0.4-1.5q0.2-0.75 0.4-1.5 0.2-0.75 0.5-1.5c0.2-0.5 0.3-1 0.5-1.5q0.17-0.35 0.37-0.67 0.21-0.33 0.45-0.63 0.24-0.31 0.51-0.58 0.27-0.28 0.57-0.52l0.6-0.2q0.06-0.03 0.12-0.06 0.06-0.02 0.13-0.05 0.06-0.02 0.12-0.05 0.07-0.02 0.13-0.04 0.07-0.03 0.15-0.04 0.07-0.02 0.15-0.04 0.07-0.01 0.15-0.01 0.07-0.01 0.15-0.01h1.3l0.6 0.2q0.08 0.03 0.16 0.06 0.07 0.03 0.15 0.07 0.07 0.04 0.15 0.08 0.07 0.04 0.14 0.09 0.07 0.04 0.13 0.09 0.07 0.05 0.13 0.1 0.06 0.05 0.12 0.1 0.06 0.05 0.12 0.11c0.9 0.8 1 1.6 1 6.1 0 2.8 0.4 8 0.8 11.5 0.4 3.5 1.2 8.8 1.7 11.7 0.5 2.9 1.3 5.7 1.5 6.3 0.2 0.6 0.6 1.2 0.8 1.2 0.2 0 1.4-3.9 2.6-8.6 1.2-4.7 2.6-11.3 3.3-14.5 0.7-3.2 1.5-7.1 1.9-8.5q0.02-0.14 0.05-0.28 0.03-0.14 0.07-0.28 0.04-0.14 0.08-0.27 0.05-0.14 0.1-0.27 0.2-0.6 0.4-1.1 0.05-0.14 0.1-0.29 0.06-0.14 0.12-0.27 0.06-0.14 0.13-0.28 0.07-0.13 0.15-0.26 0.2-0.5 0.5-1.1c1-1.5 1.4-1.8 3-1.8q0.33-0.01 0.65 0.02 0.32 0.03 0.64 0.11 0.32 0.07 0.62 0.19 0.31 0.12 0.59 0.28zm32.3 6.4q0.2 0.5 0.4 1.1 0.05 0.13 0.1 0.27 0.04 0.13 0.08 0.27 0.04 0.14 0.07 0.28 0.03 0.14 0.05 0.28 0.05 0.13 0.1 0.27 0.04 0.13 0.08 0.27 0.04 0.14 0.07 0.28 0.03 0.14 0.05 0.28 0.1 0.5 0.2 1.1c0.07 0.4 0.13 0.7 0.2 1.1q0 0.13 0.01 0.25 0 0.13 0.01 0.25 0.02 0.13 0.04 0.25 0.01 0.13 0.04 0.25v1.8q0 0.09 0 0.18-0.01 0.09-0.02 0.17-0.01 0.09-0.03 0.18-0.02 0.09-0.05 0.17 0 0.09 0 0.18-0.01 0.09-0.02 0.17-0.01 0.09-0.03 0.18-0.02 0.09-0.05 0.17-0.1 0.3-0.2 0.7c-0.4 0.8-1 1-2.8 1-2 0-2.3-0.2-2.9-1.7l-0.8-2q-0.03-0.13-0.06-0.25-0.03-0.13-0.07-0.26-0.04-0.12-0.08-0.24-0.04-0.13-0.09-0.25-0.03-0.13-0.06-0.25-0.03-0.13-0.07-0.26-0.04-0.12-0.08-0.24-0.04-0.13-0.09-0.25c-0.4-1.5-1.1-2.8-3.4-4.5l-1.8 1q-0.11 0.05-0.21 0.11-0.1 0.06-0.2 0.12-0.1 0.06-0.2 0.13-0.1 0.07-0.19 0.14l-0.7 0.7q-0.1 0.07-0.19 0.15-0.1 0.09-0.19 0.17-0.08 0.09-0.17 0.19-0.08 0.09-0.15 0.19-0.09 0.09-0.17 0.18-0.09 0.09-0.16 0.19-0.08 0.11-0.15 0.21-0.06 0.11-0.12 0.22-0.1 0.13-0.2 0.26-0.09 0.13-0.18 0.27-0.09 0.14-0.17 0.28-0.08 0.14-0.15 0.29-0.3 0.5-0.6 1.1-0.3 0.6-0.6 1.1-0.07 0.15-0.14 0.29-0.07 0.15-0.13 0.3-0.06 0.15-0.12 0.3-0.06 0.16-0.11 0.31-0.1 0.21-0.2 0.41-0.09 0.21-0.18 0.43-0.09 0.21-0.17 0.43-0.08 0.21-0.15 0.43-0.4 0.9-0.7 1.7l-0.6 1.8q-0.3 0.9-0.6 1.7c-0.6 2.4-1.6 6.1-2 8.5q-0.07 0.24-0.14 0.49-0.06 0.25-0.11 0.5-0.05 0.25-0.09 0.5-0.03 0.26-0.06 0.51-0.1 1-0.2 2.1-0.03 0.25-0.04 0.5-0.02 0.25-0.04 0.5-0.01 0.25-0.01 0.5-0.01 0.25-0.01 0.5v2.1q0 0.79 0.09 1.57 0.08 0.78 0.25 1.55 0.16 0.76 0.4 1.51 0.24 0.75 0.56 1.47 0.18 0.38 0.41 0.74 0.23 0.35 0.49 0.68 0.27 0.33 0.57 0.62 0.3 0.3 0.63 0.56l0.4 0.2q0.06 0 0.13 0.01 0.06 0.01 0.12 0.02 0.07 0.01 0.13 0.03 0.06 0.02 0.12 0.04h0.4q0.06 0 0.13 0 0.06-0.01 0.13-0.02 0.06-0.01 0.12-0.03 0.06-0.02 0.12-0.05 0.34-0.19 0.65-0.41 0.31-0.23 0.59-0.5 0.28-0.26 0.52-0.56 0.24-0.3 0.44-0.63 0.42-0.66 0.8-1.35 0.39-0.68 0.74-1.38 0.35-0.7 0.66-1.42 0.32-0.72 0.6-1.45 0.25-0.63 0.55-1.24 0.3-0.62 0.64-1.2 0.33-0.59 0.71-1.16 0.38-0.56 0.8-1.1l0.5-0.5q0.07-0.05 0.14-0.09 0.08-0.04 0.15-0.08 0.08-0.04 0.15-0.07 0.08-0.03 0.16-0.06 0.07-0.04 0.13-0.09 0.07-0.05 0.13-0.1 0.06-0.05 0.12-0.1 0.06-0.05 0.12-0.11 0.3-0.1 0.7-0.2 0.3-0.07 0.62-0.06 0.31 0.02 0.6 0.13 0.3 0.1 0.55 0.29 0.25 0.19 0.43 0.44c0.9 0.9 1 1.5 0.8 3.6q-0.02 0.17-0.05 0.33-0.04 0.16-0.07 0.33-0.04 0.16-0.08 0.32-0.05 0.16-0.1 0.32-0.03 0.18-0.06 0.35-0.03 0.18-0.07 0.35-0.04 0.18-0.08 0.35-0.04 0.18-0.09 0.35l-0.4 1.2q-0.3 0.7-0.6 1.3-0.08 0.18-0.16 0.36-0.08 0.18-0.17 0.35-0.09 0.18-0.18 0.35-0.09 0.17-0.19 0.34-0.08 0.18-0.16 0.36-0.08 0.18-0.17 0.35-0.09 0.18-0.18 0.35-0.09 0.17-0.19 0.34-0.4 0.7-0.8 1.3c-0.27 0.4-0.57 0.93-0.9 1.4l-0.8 1.2-1 1.2q-0.5 0.5-1 1.1l-1 1q-0.4 0.37-0.83 0.7-0.43 0.33-0.9 0.6-0.47 0.28-0.96 0.51-0.49 0.22-1.01 0.39-0.57 0-1.15-0.04-0.57-0.05-1.14-0.15-0.56-0.1-1.12-0.26-0.55-0.15-1.09-0.35-0.7-0.3-1.3-0.6c-0.4-0.2-0.9-0.53-1.3-0.8q-0.16-0.08-0.32-0.17-0.15-0.1-0.3-0.2-0.15-0.1-0.3-0.2-0.14-0.11-0.28-0.23-0.5-0.4-1.1-1c-0.4-0.4-0.57-0.67-0.9-1l-0.8-1.2-0.6-1.2q-0.3-0.7-0.6-1.3c-0.7-2.2-0.9-4.1-0.9-9.2q0-1.3 0.04-2.61 0.04-1.3 0.12-2.6 0.07-1.3 0.18-2.6 0.11-1.3 0.26-2.59c0.4-2.2 1.5-6.3 2.4-9.2l1.6-4.4q0.5-1.1 0.9-2.2c0.27-0.73 0.67-1.43 1-2.1 0.33-0.67 0.7-1.2 1.1-1.8 0.4-0.6 0.7-1.07 1.1-1.6q0.6-0.8 1.3-1.6 0.15-0.2 0.31-0.39 0.15-0.19 0.31-0.38 0.17-0.19 0.34-0.37 0.16-0.18 0.34-0.36 0.49-0.58 1.04-1.09 0.55-0.52 1.16-0.98 0.6-0.45 1.26-0.84 0.65-0.38 1.34-0.69l0.8-0.2q0.5-0.1 0.9-0.2 0.11-0.02 0.22-0.04 0.11-0.02 0.23-0.03 0.11-0.02 0.22-0.02 0.12-0.01 0.23-0.01h0.9q0.11-0.03 0.22-0.04 0.12-0.01 0.23-0.01 0.11 0 0.23 0.01 0.11 0.01 0.22 0.04 0.11 0 0.23 0 0.11 0.01 0.22 0.02 0.12 0.01 0.23 0.03 0.11 0.02 0.22 0.05 0.11 0.03 0.23 0.06 0.11 0.04 0.22 0.08 0.12 0.03 0.23 0.07 0.11 0.05 0.22 0.09 0.1 0.03 0.21 0.06 0.1 0.03 0.2 0.07 0.1 0.04 0.2 0.08 0.09 0.04 0.19 0.09 0.11 0.05 0.21 0.11 0.1 0.06 0.2 0.12 0.1 0.06 0.2 0.13 0.1 0.07 0.19 0.14 0.11 0.05 0.21 0.11 0.1 0.06 0.2 0.12 0.1 0.06 0.2 0.13 0.1 0.07 0.19 0.14 0.1 0.05 0.19 0.1 0.09 0.06 0.18 0.12 0.09 0.06 0.17 0.13 0.08 0.07 0.16 0.15 0.09 0.07 0.18 0.14 0.09 0.07 0.18 0.15 0.09 0.07 0.17 0.15 0.09 0.08 0.17 0.16l0.7 0.7 0.6 0.8q0.08 0.08 0.16 0.17 0.08 0.08 0.15 0.17 0.08 0.09 0.15 0.18 0.07 0.09 0.14 0.18 0.2 0.4 0.5 0.9zm35.4-0.3l0.6 1q0.05 0.14 0.1 0.29 0.06 0.14 0.12 0.27 0.06 0.14 0.13 0.28 0.07 0.13 0.15 0.26 0.2 0.6 0.4 1.1 0.14 0.65 0.22 1.31 0.09 0.66 0.13 1.33 0.03 0.66 0.02 1.33-0.01 0.67-0.07 1.33c-0.07 0.47-0.13 1-0.2 1.5-0.07 0.5-0.27 1-0.4 1.5q-0.05 0.18-0.11 0.36-0.05 0.17-0.12 0.35-0.06 0.17-0.13 0.35-0.07 0.17-0.14 0.34-0.05 0.2-0.11 0.39-0.06 0.19-0.14 0.38-0.07 0.19-0.16 0.37-0.09 0.18-0.19 0.36-0.08 0.18-0.17 0.37-0.09 0.18-0.19 0.35-0.1 0.18-0.21 0.35-0.11 0.17-0.23 0.33-0.4 0.6-0.8 1.3c-0.27 0.47-0.67 0.9-1 1.3q-0.5 0.6-1.1 1.2-0.13 0.16-0.27 0.3-0.14 0.15-0.29 0.29-0.15 0.14-0.31 0.27-0.16 0.12-0.33 0.24-0.15 0.13-0.31 0.25-0.16 0.11-0.32 0.23-0.16 0.11-0.33 0.22-0.17 0.1-0.34 0.2-0.16 0.12-0.33 0.23-0.17 0.11-0.35 0.21-0.17 0.1-0.35 0.19-0.19 0.09-0.37 0.17-0.18 0.1-0.36 0.2-0.19 0.09-0.38 0.18-0.18 0.09-0.37 0.17-0.2 0.08-0.39 0.15c-2.6 1-3 1.4-2.7 2.2 0.1 0.6 0.6 2.5 1.1 4.3 0.5 1.8 1.7 5.4 2.7 8.1 1 2.7 2.5 6.6 3.3 8.6q0.24 0.54 0.46 1.1 0.21 0.55 0.4 1.11 0.19 0.57 0.35 1.14 0.16 0.57 0.29 1.15v0.4q-0.02 0.05-0.04 0.09-0.02 0.05-0.03 0.1-0.02 0.05-0.02 0.11-0.01 0.05-0.01 0.1-0.02 0.04-0.04 0.08-0.02 0.04-0.05 0.08-0.02 0.03-0.05 0.07-0.03 0.04-0.06 0.07-0.03 0.06-0.06 0.11-0.04 0.05-0.08 0.1-0.03 0.05-0.07 0.1-0.05 0.05-0.09 0.09-0.21 0.15-0.43 0.26-0.23 0.11-0.47 0.19-0.25 0.07-0.5 0.11-0.25 0.04-0.5 0.04 0.01 0 0 0c-1.67-0.27-1.9-0.33-2.1-0.4q-0.09-0.02-0.18-0.05-0.09-0.03-0.18-0.07-0.09-0.04-0.17-0.08-0.09-0.05-0.17-0.1c-1-0.5-1.7-1.6-2.8-4.3-0.7-2-1.7-4.9-2.1-6.4-0.4-1.5-1.7-5.9-2.9-9.8-1.2-3.9-2.6-7.3-3-7.5q-0.13-0.07-0.27-0.1-0.15-0.03-0.3-0.02-0.14 0.02-0.28 0.07-0.13 0.06-0.25 0.15c-0.3 0.2-0.9 2.4-1.5 4.7-0.6 2.3-2.1 8.1-3.2 12.7-1.1 4.9-2.3 8.9-2.8 9.4l-0.6 0.4-0.6 0.2q-0.08 0.05-0.16 0.09-0.09 0.04-0.18 0.06-0.08 0.03-0.18 0.04-0.09 0.01-0.18 0.01h-0.7q-0.31 0.02-0.63-0.01-0.31-0.02-0.62-0.1-0.3-0.08-0.59-0.2-0.29-0.12-0.56-0.29-0.16-0.27-0.28-0.56-0.12-0.29-0.19-0.6-0.08-0.3-0.11-0.61-0.03-0.32-0.02-0.63c0-0.9 0.5-4 1-6.9 0.5-2.9 1.2-6.5 1.5-8 0.3-1.5 1.1-5.5 1.8-8.9 0.7-3.4 1.6-7.5 2-9.2 0.4-1.7 1.2-5.6 1.8-8.7q0.2-0.75 0.36-1.51 0.17-0.76 0.31-1.52 0.13-0.76 0.24-1.53 0.11-0.77 0.19-1.54-0.14-0.11-0.29-0.19-0.15-0.09-0.32-0.14-0.17-0.05-0.34-0.07-0.18-0.02-0.35 0-0.06 0.03-0.12 0.04-0.07 0.01-0.13 0.01-0.06 0-0.13-0.01-0.06-0.01-0.12-0.04-0.05 0-0.1-0.01-0.06 0-0.11-0.02-0.05-0.01-0.1-0.03-0.04-0.02-0.09-0.04-0.06-0.03-0.12-0.06-0.06-0.02-0.13-0.05-0.06-0.02-0.12-0.05-0.07-0.02-0.13-0.04-0.04-0.02-0.08-0.04-0.04-0.02-0.08-0.05-0.03-0.02-0.07-0.05-0.04-0.03-0.07-0.06-0.18-0.24-0.34-0.51-0.15-0.26-0.28-0.54-0.13-0.27-0.22-0.56-0.1-0.29-0.16-0.59-0.02-0.09-0.04-0.17-0.02-0.09-0.03-0.18-0.01-0.08-0.02-0.17-0.01-0.09-0.01-0.18 0-0.1 0.01-0.2 0-0.1 0.01-0.2 0.02-0.1 0.04-0.2 0.01-0.1 0.04-0.2 0-0.09 0.01-0.18 0.01-0.1 0.04-0.18 0.02-0.09 0.06-0.18 0.04-0.08 0.09-0.16 0.02-0.09 0.05-0.18 0.03-0.09 0.07-0.18 0.04-0.09 0.08-0.17 0.05-0.09 0.1-0.17c0.8-1.3 0.9-1.3 5.7-1.3 2.6 0 6.9 0.2 9.5 0.4q0.95 0.07 1.89 0.21 0.94 0.14 1.86 0.34 0.93 0.2 1.84 0.46 0.92 0.27 1.81 0.59 0.16 0.08 0.31 0.16 0.15 0.08 0.3 0.17 0.15 0.09 0.3 0.18 0.15 0.09 0.29 0.19 0.16 0.08 0.31 0.16 0.15 0.08 0.3 0.17 0.15 0.09 0.3 0.18 0.15 0.09 0.29 0.19 0.5 0.41 1 0.9c0.33 0.33 0.67 0.57 1 0.9q0.1 0.12 0.19 0.24 0.09 0.12 0.18 0.25 0.09 0.12 0.17 0.25 0.08 0.13 0.16 0.26zm-6.8 4.9l-1.6-1.2q-0.49-0.3-0.9-0.5l-1-0.4-0.9-0.2q-0.4-0.1-0.9-0.2-0.11 0-0.23-0.01-0.11 0-0.22-0.02-0.12-0.01-0.23-0.03-0.11-0.02-0.22-0.04h-0.9c-1.2 0-1.7 0.3-2 1.1q-0.28 0.88-0.54 1.78-0.25 0.89-0.48 1.79-0.22 0.9-0.42 1.81-0.19 0.91-0.36 1.82c-0.6 3.3-1.2 6.3-1.2 6.6 0 0.3 0.9 0.5 1.9 0.5q0.14-0.02 0.27-0.04 0.14-0.02 0.28-0.03 0.14-0.02 0.27-0.02 0.14-0.01 0.28-0.01 0.13 0 0.25-0.01 0.13 0 0.25-0.01 0.13-0.02 0.25-0.04 0.13-0.01 0.25-0.04l1-0.2q0.14 0 0.28-0.01 0.14-0.01 0.28-0.04 0.14-0.02 0.27-0.06 0.14-0.04 0.27-0.09 0.13-0.03 0.25-0.06 0.13-0.03 0.26-0.07 0.12-0.04 0.24-0.08 0.13-0.04 0.25-0.09 0.13-0.05 0.26-0.11 0.13-0.06 0.25-0.12 0.13-0.06 0.25-0.13 0.12-0.07 0.24-0.14 0.5-0.3 0.9-0.6 0.11-0.08 0.21-0.16 0.1-0.09 0.2-0.18 0.1-0.08 0.2-0.17 0.1-0.1 0.19-0.19 0.36-0.33 0.68-0.68 0.33-0.35 0.63-0.73 0.31-0.37 0.58-0.77 0.27-0.4 0.51-0.82 0.05-0.1 0.09-0.19 0.04-0.1 0.08-0.2 0.04-0.1 0.07-0.2 0.03-0.11 0.06-0.21 0.05-0.11 0.09-0.22 0.05-0.11 0.09-0.22 0.03-0.11 0.07-0.23 0.03-0.11 0.05-0.23l0.2-0.8q0.1-0.49 0.2-0.9c0.3-1.9 0.2-2.3-1.1-3.7zm167.7-4.7l0.6 1.2q0.3 0.6 0.6 1.3 0.08 0.16 0.15 0.32 0.07 0.16 0.13 0.32 0.06 0.16 0.12 0.33 0.05 0.16 0.1 0.33c0.8 2.5 1 4.3 0.9 11.7 0 8-0.1 9-1.4 12.9q-0.3 1.1-0.7 2.2-0.4 1.1-0.9 2.2-0.1 0.27-0.2 0.53-0.11 0.27-0.22 0.53-0.12 0.26-0.23 0.52-0.12 0.26-0.25 0.52l-1 2.2q-0.43 1.03-0.98 2.02-0.54 0.98-1.18 1.9-0.64 0.92-1.38 1.77-0.74 0.85-1.56 1.61-0.67 0.72-1.45 1.33-0.77 0.61-1.62 1.11-0.85 0.49-1.76 0.86-0.91 0.37-1.87 0.6-0.75 0.28-1.53 0.46-0.78 0.19-1.58 0.28-0.79 0.08-1.59 0.08-0.81-0.01-1.6-0.12-0.15 0-0.3-0.01-0.16-0.02-0.31-0.04-0.15-0.03-0.3-0.06-0.15-0.04-0.29-0.09-0.15-0.02-0.31-0.05-0.15-0.03-0.3-0.07-0.15-0.03-0.3-0.08-0.14-0.05-0.29-0.1-0.15-0.05-0.31-0.11-0.15-0.06-0.3-0.12-0.15-0.06-0.3-0.13-0.14-0.07-0.29-0.14-0.6-0.3-1.1-0.6-0.56-0.43-1.07-0.93-0.51-0.5-0.95-1.05-0.44-0.56-0.82-1.17-0.37-0.6-0.66-1.25c-1.3-2.8-1.4-3.3-1.6-10.4-0.2-6.2 0-8.3 0.8-12.4q0.2-1.1 0.5-2.2c0.2-0.73 0.3-1.47 0.5-2.2l0.6-2.2q0.3-1 0.6-2.1 0.28-0.86 0.58-1.7 0.3-0.85 0.62-1.69 0.33-0.84 0.68-1.66 0.35-0.83 0.72-1.65 0.07-0.19 0.15-0.39 0.08-0.19 0.17-0.37 0.09-0.19 0.18-0.38 0.1-0.18 0.2-0.36l0.8-1.4q0.09-0.19 0.2-0.37 0.1-0.18 0.21-0.35 0.11-0.18 0.24-0.35 0.12-0.17 0.25-0.33l1-1.4q0.39-0.5 0.81-0.99 0.41-0.48 0.85-0.95 0.44-0.46 0.9-0.9 0.46-0.44 0.94-0.86 0.09-0.07 0.19-0.14 0.1-0.07 0.2-0.13 0.1-0.06 0.2-0.12 0.1-0.06 0.21-0.11l1.6-0.8q0.11-0.05 0.22-0.09 0.11-0.05 0.22-0.09 0.11-0.03 0.23-0.07 0.11-0.03 0.23-0.05 0.1-0.05 0.19-0.09 0.1-0.04 0.2-0.08 0.1-0.04 0.2-0.07 0.11-0.03 0.21-0.06 0.01 0 0.01 0c1.86-0.2 1.92-0.2 1.99-0.19q0.1 0 0.2 0.01 0.1 0.02 0.2 0.04 0.1 0.01 0.2 0.04 0.44 0.05 0.89 0.12 0.44 0.06 0.88 0.15 0.43 0.09 0.87 0.2 0.43 0.1 0.86 0.23 0.12 0.02 0.23 0.05 0.12 0.04 0.23 0.07 0.11 0.04 0.22 0.09 0.11 0.04 0.22 0.09 0.5 0.2 0.9 0.4l0.8 0.4q0.11 0.05 0.21 0.11 0.1 0.06 0.2 0.12 0.1 0.06 0.2 0.13 0.1 0.07 0.19 0.14 0.12 0.07 0.24 0.15 0.12 0.08 0.23 0.17 0.11 0.09 0.22 0.18 0.11 0.1 0.21 0.2 0.5 0.4 0.9 0.7c0.27 0.2 0.53 0.57 0.8 0.9q0.09 0.09 0.19 0.19 0.09 0.1 0.17 0.2 0.09 0.1 0.18 0.2 0.08 0.1 0.16 0.21zm-5.2 22.9q0.3-1.69 0.5-3.3c0.13-1.07 0.1-2.27 0.1-3.4 0-1.13 0-2.27-0.1-3.4-0.1-1.13-0.3-2.23-0.5-3.3q-0.02-0.14-0.05-0.28-0.03-0.14-0.07-0.28-0.04-0.14-0.08-0.27-0.05-0.14-0.1-0.27-0.03-0.14-0.06-0.28-0.04-0.14-0.08-0.27-0.03-0.14-0.07-0.28-0.05-0.13-0.09-0.27l-0.8-2q-0.04-0.09-0.09-0.18-0.05-0.09-0.1-0.18-0.05-0.08-0.1-0.17-0.05-0.09-0.11-0.17-0.05-0.08-0.11-0.16-0.06-0.08-0.12-0.15-0.07-0.08-0.13-0.15-0.07-0.07-0.14-0.14l-0.6-0.6q-0.07-0.07-0.14-0.14-0.07-0.06-0.15-0.13-0.07-0.06-0.15-0.12-0.08-0.06-0.16-0.11l-0.6-0.4-0.6-0.2q-0.4-0.1-0.7-0.2-0.09 0-0.18 0-0.09-0.01-0.17-0.02-0.09-0.01-0.18-0.03-0.09-0.02-0.17-0.05-0.4 0.04-0.8 0.13-0.39 0.09-0.77 0.23-0.38 0.14-0.74 0.33-0.36 0.18-0.69 0.41-1.65 1.2-3.6 5.1-0.4 0.9-0.8 1.9l-0.8 1.8q-0.07 0.24-0.15 0.48-0.08 0.24-0.17 0.48-0.09 0.24-0.18 0.47-0.1 0.24-0.2 0.47-0.3 0.9-0.6 1.9-0.08 0.23-0.15 0.47-0.07 0.23-0.13 0.47-0.06 0.24-0.12 0.48-0.05 0.24-0.1 0.48-0.08 0.23-0.15 0.47-0.07 0.23-0.13 0.47-0.06 0.24-0.12 0.48-0.05 0.24-0.1 0.48-0.19 1-0.3 1.9c-0.07 0.6-0.23 1.33-0.3 2-0.07 0.67-0.23 1.37-0.3 2.1-0.07 0.73 0 1.37-0.1 2.1q0 0.26 0 0.53 0.01 0.26 0.02 0.52 0.02 0.26 0.03 0.53 0.02 0.26 0.05 0.52 0 0.26 0.01 0.53 0.01 0.26 0.04 0.52 0.02 0.27 0.06 0.53 0.04 0.26 0.09 0.52 0.09 0.78 0.21 1.55 0.13 0.77 0.29 1.53 0.17 0.77 0.37 1.52 0.19 0.76 0.43 1.5c0.6 1.5 1 1.9 2.2 1.9q-0.01 0.03-0.01 0.02c1.81-0.29 2.04-0.35 2.31-0.42q0.1-0.05 0.19-0.09 0.1-0.04 0.2-0.08 0.1-0.04 0.2-0.07 0.11-0.03 0.21-0.06l0.8-0.4q0.09-0.04 0.18-0.09 0.09-0.05 0.18-0.1 0.08-0.05 0.17-0.1 0.09-0.05 0.17-0.11l0.8-0.4q0.09-0.04 0.18-0.09 0.09-0.05 0.18-0.1 0.08-0.05 0.17-0.1 0.09-0.05 0.17-0.11 0.41-0.31 0.79-0.65 0.39-0.34 0.75-0.71 0.37-0.36 0.71-0.75 0.34-0.38 0.65-0.79 0.4-0.7 0.8-1.3 0.1-0.17 0.19-0.34 0.09-0.17 0.18-0.35 0.09-0.17 0.17-0.35 0.08-0.18 0.16-0.36 0.1-0.17 0.19-0.34 0.09-0.17 0.18-0.35 0.09-0.17 0.17-0.35 0.08-0.18 0.16-0.36l0.6-1.4c0.7-1.9 1.6-4.7 2-6.2zm-29.7-14.4c0.2 2.8 0 3.7-1.3 6.5q-0.29 0.68-0.63 1.33-0.34 0.66-0.73 1.29-0.39 0.63-0.83 1.22-0.43 0.6-0.91 1.16-0.5 0.49-1 0.9c-0.33 0.27-0.67 0.63-1 0.9q-0.5 0.4-1.1 0.8c-0.4 0.27-0.7 0.53-1.1 0.8l1.6 0.7q0.11 0.05 0.21 0.11 0.1 0.06 0.2 0.12 0.1 0.06 0.2 0.13 0.1 0.07 0.19 0.14 0.09 0.07 0.18 0.14 0.09 0.07 0.18 0.15 0.09 0.07 0.17 0.15 0.09 0.08 0.17 0.16 0.19 0.14 0.36 0.29 0.18 0.15 0.34 0.31 0.16 0.16 0.31 0.34 0.15 0.17 0.29 0.36 0.3 0.5 0.6 0.9l0.6 1q0.05 0.13 0.11 0.26 0.06 0.13 0.12 0.25 0.06 0.13 0.13 0.25 0.07 0.12 0.14 0.24l0.4 1q0.2 0.5 0.4 1.1l0.2 1.2q0.05 0.3 0.07 0.6 0.03 0.3 0.03 0.6 0 0.3-0.03 0.6-0.02 0.3-0.07 0.6 0 0.16-0.02 0.33-0.01 0.16-0.04 0.33-0.02 0.16-0.06 0.32-0.03 0.16-0.08 0.32-0.03 0.16-0.07 0.31-0.04 0.15-0.09 0.3-0.05 0.16-0.11 0.3-0.06 0.15-0.13 0.29-0.05 0.15-0.11 0.31-0.06 0.15-0.12 0.3-0.06 0.15-0.13 0.3-0.07 0.14-0.14 0.29-0.07 0.15-0.15 0.29-0.08 0.14-0.17 0.28-0.09 0.14-0.18 0.27-0.1 0.13-0.2 0.26-0.5 0.67-1.05 1.3-0.54 0.63-1.13 1.22-0.59 0.59-1.22 1.13-0.63 0.55-1.3 1.05-0.93 0.65-1.88 1.26-0.96 0.61-1.93 1.19-0.98 0.57-1.98 1.11-0.99 0.54-2.01 1.04c-3.9 1.8-5.3 2.3-8.2 2.4q-0.61 0.07-1.22 0.1-0.62 0.03-1.23 0.01-0.62-0.01-1.23-0.06-0.61-0.06-1.22-0.15-0.41-0.14-0.79-0.33-0.38-0.19-0.74-0.43-0.35-0.24-0.67-0.53-0.32-0.28-0.6-0.61c-1.3-1.4-1.5-1.9-1.5-4.8v-1.5q0.02-0.19 0.04-0.37 0.02-0.19 0.03-0.38 0.02-0.19 0.02-0.37 0.01-0.19 0.01-0.38c0.07-0.53 0.13-1 0.2-1.5q0.1-0.75 0.2-1.5c0.3-1.5 0.5-3.6 0.7-4.7 0.2-1.1 0.3-2.8 0.5-3.7 0.2-0.9 0.6-4.7 1-8.2 0.4-3.5 0.9-7.6 1.1-9 0.2-1.4 0.3-3.9 0.6-5.7 0.3-1.8 0.6-4.1 0.8-5.3 0.3-2 0.1-2.2-1.1-2.8q-0.08-0.02-0.16-0.04-0.08-0.03-0.16-0.07-0.08-0.04-0.15-0.09-0.07-0.04-0.13-0.1-0.07-0.05-0.14-0.1-0.07-0.06-0.14-0.12-0.06-0.07-0.12-0.14-0.05-0.07-0.1-0.14-0.05-0.07-0.09-0.14-0.04-0.08-0.08-0.15-0.04-0.08-0.07-0.15-0.03-0.08-0.06-0.16-0.03-0.08-0.05-0.17-0.02-0.09-0.03-0.18-0.01-0.08-0.02-0.17 0-0.09 0-0.18-0.03-0.39 0.02-0.78 0.06-0.38 0.2-0.75 0.15-0.36 0.37-0.69 0.22-0.32 0.51-0.58c1.1-1.3 1.5-1.4 4.8-1.4 2 0 5.8 0.3 8.4 0.6q0.86 0.06 1.71 0.18 0.85 0.12 1.69 0.29 0.84 0.18 1.66 0.41 0.83 0.23 1.64 0.52l0.8 0.4q0.12 0.05 0.24 0.1 0.11 0.06 0.23 0.12 0.11 0.06 0.22 0.13 0.11 0.07 0.21 0.15 0.11 0.05 0.21 0.11 0.1 0.06 0.2 0.12 0.1 0.06 0.2 0.13 0.1 0.07 0.19 0.14 0.3 0.2 0.7 0.5c0.7 0.6 1.9 1.7 2.7 2.4q0.1 0.1 0.2 0.21 0.09 0.11 0.18 0.22 0.09 0.11 0.17 0.23 0.08 0.12 0.15 0.24 0.3 0.41 0.6 0.9 0.1 0.1 0.18 0.2 0.09 0.11 0.17 0.22 0.07 0.11 0.14 0.23 0.06 0.12 0.11 0.25l0.6 1q0.23 0.65 0.42 1.32 0.19 0.67 0.34 1.35 0.15 0.67 0.26 1.36 0.11 0.68 0.18 1.37zm-9.4 25v-1.5q-0.03-0.1-0.04-0.2-0.02-0.1-0.04-0.2-0.01-0.1-0.01-0.2-0.01-0.1-0.01-0.2-0.13-0.37-0.3-0.72-0.18-0.36-0.39-0.68-0.22-0.33-0.47-0.63-0.25-0.3-0.54-0.57l-1.6-1.2q-0.1-0.08-0.21-0.15-0.11-0.07-0.22-0.13-0.12-0.06-0.23-0.12-0.12-0.05-0.24-0.1-0.1-0.08-0.21-0.15-0.11-0.07-0.22-0.13-0.12-0.06-0.23-0.12-0.12-0.05-0.24-0.1-0.13-0.08-0.26-0.15-0.14-0.07-0.28-0.13-0.13-0.06-0.27-0.12-0.15-0.05-0.29-0.1 0 0.02 0 0.02l-3.6-0.82-2.7-0.3-1.1 8.4c-0.9 6.5-1 8.5-0.5 8.7q0.31 0.11 0.63 0.19 0.32 0.08 0.65 0.13 0.33 0.05 0.66 0.07 0.33 0.02 0.66 0.01 0.6-0.04 1.19-0.13 0.59-0.1 1.17-0.25 0.58-0.15 1.14-0.36 0.56-0.2 1.1-0.46 0.14-0.1 0.29-0.19 0.15-0.09 0.3-0.18 0.15-0.09 0.3-0.17 0.15-0.08 0.31-0.16l1.2-0.8q0.6-0.4 1.1-0.8c0.33-0.27 0.77-0.67 1.1-1q0.39-0.38 0.73-0.79 0.34-0.42 0.63-0.88 0.29-0.45 0.52-0.94 0.24-0.48 0.42-0.99 0-0.09 0-0.18 0.01-0.09 0.02-0.17 0.01-0.09 0.03-0.18 0.02-0.09 0.05-0.17zm3.1-23.6q-0.02-0.14-0.04-0.27-0.02-0.14-0.03-0.28-0.02-0.14-0.02-0.27-0.01-0.14-0.01-0.28l-0.2-1q-0.03-0.13-0.06-0.25-0.03-0.13-0.07-0.26-0.04-0.12-0.08-0.24-0.04-0.13-0.09-0.25-0.05-0.12-0.09-0.25-0.04-0.12-0.08-0.24-0.04-0.13-0.07-0.26-0.03-0.12-0.06-0.25-0.3-0.5-0.5-0.9l-0.6-0.8q-0.07-0.09-0.14-0.18-0.07-0.09-0.15-0.18-0.07-0.09-0.15-0.17-0.08-0.09-0.16-0.17l-0.7-0.7q-0.44-0.32-0.91-0.6-0.47-0.28-0.96-0.52-0.49-0.23-1-0.43-0.51-0.2-1.03-0.35c-1.4-0.4-2.7-0.7-2.8-0.7q-0.13 0.06-0.27 0.11-0.13 0.04-0.27 0.08-0.14 0.04-0.28 0.07-0.14 0.02-0.28 0.04-0.24 0.14-0.44 0.33-0.2 0.19-0.34 0.43-0.14 0.24-0.23 0.5-0.08 0.26-0.09 0.54c-0.2 0.9-0.6 3.9-1 6.8-0.4 2.9-0.8 6.1-0.9 7.2l-0.1 2q0.95 0.09 1.9 0.14 0.95 0.05 1.9 0.06 0.95 0.01 1.9-0.01 0.95-0.03 1.9-0.09 0.47-0.17 0.92-0.37 0.45-0.21 0.88-0.47 0.42-0.25 0.83-0.54 0.4-0.29 0.77-0.62 0.37-0.32 0.7-0.66 0.34-0.35 0.64-0.73 0.3-0.38 0.57-0.78 0.26-0.4 0.49-0.83 0.17-0.4 0.31-0.82 0.14-0.42 0.24-0.84 0.1-0.43 0.16-0.87 0.07-0.43 0.09-0.87zm76.2 35.2c0.7 2 0.7 2.2-0.5 3.4q-0.07 0.07-0.14 0.14-0.07 0.06-0.15 0.13-0.07 0.06-0.15 0.12-0.08 0.06-0.16 0.11-0.08 0.06-0.17 0.11-0.09 0.05-0.17 0.1-0.09 0.05-0.18 0.1-0.09 0.05-0.18 0.09-0.1 0.05-0.19 0.09-0.1 0.04-0.2 0.08-0.1 0.04-0.2 0.07-0.11 0.03-0.21 0.06h-1.4q-0.09-0.02-0.17-0.04-0.09-0.02-0.18-0.03-0.08-0.01-0.17-0.02-0.09-0.01-0.18-0.01-0.3-0.1-0.7-0.2-0.07-0.05-0.14-0.09-0.08-0.04-0.15-0.08-0.08-0.04-0.15-0.07-0.08-0.03-0.16-0.06-0.34-0.38-0.65-0.78-0.31-0.4-0.59-0.83-0.28-0.43-0.52-0.87-0.24-0.45-0.44-0.92c-0.6-1.5-2.1-5.1-3.2-8.1-1.1-3-2-6-2.1-6.6-0.1-0.6-0.4-1.1-0.7-1.1q-0.41 0.48-0.79 1-0.38 0.51-0.72 1.05-0.34 0.54-0.64 1.1-0.29 0.57-0.55 1.15c-1.2 2.4-3.2 6.2-4.4 8.6q-0.38 0.7-0.79 1.38-0.41 0.68-0.84 1.35-0.44 0.66-0.91 1.3-0.47 0.65-0.96 1.27-0.17 0.19-0.37 0.36-0.19 0.16-0.41 0.3-0.21 0.14-0.44 0.25-0.24 0.11-0.48 0.19-0.06 0-0.13-0.01-0.06-0.01-0.12-0.02-0.07-0.01-0.13-0.03-0.06-0.02-0.12-0.04-0.05 0-0.1-0.01-0.06 0-0.11-0.02-0.05-0.01-0.1-0.03-0.04-0.02-0.09-0.04-0.06-0.02-0.13-0.04-0.06-0.03-0.12-0.05-0.07-0.03-0.13-0.05-0.06-0.03-0.12-0.06-0.06-0.03-0.12-0.06-0.06-0.02-0.13-0.05-0.06-0.02-0.12-0.05-0.07-0.02-0.13-0.04-0.2-0.11-0.5-0.3-0.06-0.06-0.12-0.11-0.06-0.05-0.12-0.1-0.06-0.05-0.13-0.1-0.06-0.05-0.13-0.09-0.04-0.07-0.09-0.13-0.05-0.07-0.1-0.13-0.05-0.06-0.1-0.12-0.05-0.06-0.11-0.12-0.19-0.3-0.3-0.5c-0.4-0.9-0.1-2 1.5-5.5 1-2.4 2.6-5.7 3.4-7.3 0.8-1.6 2.6-5.3 6.3-13.3l-1.9-5.3c-1.1-2.9-2.9-8-4.1-11.4q-0.37-0.91-0.69-1.84-0.33-0.92-0.62-1.86-0.29-0.94-0.54-1.89-0.24-0.95-0.45-1.91-0.03-0.32 0.03-0.65 0.06-0.32 0.2-0.61 0.15-0.29 0.37-0.53 0.22-0.24 0.5-0.41 0.35-0.22 0.75-0.36 0.39-0.15 0.8-0.21 0.41-0.07 0.83-0.05 0.42 0.02 0.82 0.12 0.33 0.03 0.65 0.09 0.32 0.05 0.63 0.14 0.32 0.09 0.62 0.21 0.31 0.11 0.6 0.26 0.25 0.34 0.48 0.71 0.23 0.36 0.43 0.73 0.2 0.38 0.37 0.77 0.17 0.39 0.32 0.79c0.6 1.5 1.9 5.2 3 8.2 1.1 3 2.3 5.4 2.6 5.4 0.3 0 2-3.3 3.8-7.4 1.8-4.1 3.7-8 4.4-8.6q0.08-0.08 0.16-0.15 0.08-0.07 0.17-0.13 0.09-0.06 0.18-0.12 0.09-0.05 0.19-0.1 0.1-0.05 0.19-0.09 0.1-0.04 0.2-0.08 0.1-0.04 0.2-0.07 0.11-0.03 0.21-0.06 0.09-0.05 0.19-0.08 0.1-0.04 0.2-0.07 0.1-0.02 0.2-0.03 0.11-0.02 0.21-0.02 0.1-0.03 0.2-0.04 0.1-0.02 0.2-0.04 0.1-0.01 0.2-0.01 0.1-0.01 0.2-0.01 0.38-0.01 0.75 0.04 0.37 0.06 0.73 0.17 0.35 0.12 0.69 0.29 0.33 0.17 0.63 0.4 0.17 0.16 0.32 0.34 0.14 0.18 0.26 0.39 0.11 0.2 0.19 0.42 0.08 0.22 0.13 0.45-0.33 0.96-0.68 1.91-0.36 0.95-0.75 1.89-0.39 0.94-0.8 1.86-0.42 0.93-0.87 1.84c-1.7 3.6-4 8.8-5.2 11.4q-0.34 0.63-0.64 1.28-0.31 0.65-0.59 1.32-0.27 0.66-0.51 1.34-0.25 0.67-0.46 1.36c0 0.3 1.5 4.7 3.3 9.7 1.8 5 3.5 9.9 4 10.8 0.5 0.9 1 2.7 1.4 3.8z"/>
</svg>